<svg xmlns="http://www.w3.org/2000/svg" xmlns:xlink="http://www.w3.org/1999/xlink" width="800" zoomAndPan="magnify" viewBox="0 0 600 299.999988" height="400" preserveAspectRatio="xMidYMid meet" version="1.0"><defs><g/></defs><g fill="#ffffff" fill-opacity="1"><g transform="translate(14.686534, 200.272328)"><g><path d="M 78.75 2.359375 C 64.3125 2.359375 51.546875 -0.691406 40.453125 -6.796875 C 29.359375 -12.898438 20.660156 -21.296875 14.359375 -31.984375 C 8.066406 -42.679688 4.921875 -54.921875 4.921875 -68.703125 C 4.921875 -82.617188 8.066406 -94.921875 14.359375 -105.609375 C 20.660156 -116.304688 29.320312 -124.707031 40.34375 -130.8125 C 51.375 -136.914062 64.039062 -139.96875 78.34375 -139.96875 C 92.78125 -139.96875 105.507812 -136.914062 116.53125 -130.8125 C 127.5625 -124.707031 136.222656 -116.304688 142.515625 -105.609375 C 148.816406 -94.921875 151.96875 -82.617188 151.96875 -68.703125 C 151.96875 -54.921875 148.851562 -42.679688 142.625 -31.984375 C 136.394531 -21.296875 127.765625 -12.898438 116.734375 -6.796875 C 105.710938 -0.691406 93.050781 2.359375 78.75 2.359375 Z M 78.75 -31.109375 C 85.832031 -31.109375 92.0625 -32.710938 97.4375 -35.921875 C 102.820312 -39.140625 107.023438 -43.570312 110.046875 -49.21875 C 113.066406 -54.863281 114.578125 -61.359375 114.578125 -68.703125 C 114.578125 -76.054688 113.03125 -82.585938 109.9375 -88.296875 C 106.851562 -94.003906 102.585938 -98.460938 97.140625 -101.671875 C 91.703125 -104.890625 85.4375 -106.5 78.34375 -106.5 C 71.394531 -106.5 65.195312 -104.890625 59.75 -101.671875 C 54.300781 -98.460938 50.035156 -94.003906 46.953125 -88.296875 C 43.867188 -82.585938 42.328125 -76.054688 42.328125 -68.703125 C 42.328125 -61.359375 43.898438 -54.863281 47.046875 -49.21875 C 50.203125 -43.570312 54.5 -39.140625 59.9375 -35.921875 C 65.382812 -32.710938 71.65625 -31.109375 78.75 -31.109375 Z M 78.75 -31.109375 "/></g></g></g><g fill="#ffffff" fill-opacity="1"><g transform="translate(171.577717, 200.272328)"><g><path d="M 9.84375 39.375 L 9.84375 -98.421875 L 43.3125 -98.421875 L 45.28125 -80.3125 L 45.28125 39.375 Z M 71.65625 2.359375 C 63.519531 2.359375 56.789062 0.328125 51.46875 -3.734375 C 46.15625 -7.804688 42.21875 -13.710938 39.65625 -21.453125 C 37.101562 -29.203125 35.828125 -38.457031 35.828125 -49.21875 C 35.828125 -60.101562 37.101562 -69.382812 39.65625 -77.0625 C 42.21875 -84.75 46.15625 -90.625 51.46875 -94.6875 C 56.789062 -98.757812 63.519531 -100.796875 71.65625 -100.796875 C 80.976562 -100.796875 88.953125 -98.757812 95.578125 -94.6875 C 102.203125 -90.625 107.285156 -84.75 110.828125 -77.0625 C 114.367188 -69.382812 116.140625 -60.101562 116.140625 -49.21875 C 116.140625 -38.457031 114.367188 -29.203125 110.828125 -21.453125 C 107.285156 -13.710938 102.203125 -7.804688 95.578125 -3.734375 C 88.953125 0.328125 80.976562 2.359375 71.65625 2.359375 Z M 62.203125 -30.3125 C 65.484375 -30.3125 68.367188 -31.128906 70.859375 -32.765625 C 73.359375 -34.410156 75.363281 -36.644531 76.875 -39.46875 C 78.382812 -42.289062 79.140625 -45.539062 79.140625 -49.21875 C 79.140625 -52.894531 78.414062 -56.140625 76.96875 -58.953125 C 75.53125 -61.773438 73.5625 -63.972656 71.0625 -65.546875 C 68.570312 -67.128906 65.6875 -67.921875 62.40625 -67.921875 C 59.125 -67.921875 56.171875 -67.128906 53.546875 -65.546875 C 50.921875 -63.972656 48.882812 -61.773438 47.4375 -58.953125 C 46 -56.140625 45.28125 -52.894531 45.28125 -49.21875 C 45.28125 -45.539062 46 -42.289062 47.4375 -39.46875 C 48.882812 -36.644531 50.882812 -34.410156 53.4375 -32.765625 C 56 -31.128906 58.921875 -30.3125 62.203125 -30.3125 Z M 62.203125 -30.3125 "/></g></g></g><g fill="#5170ff" fill-opacity="1"><g transform="translate(291.659172, 200.272328)"><g><path d="M 11.8125 0 L 11.8125 -137.796875 L 106.109375 -137.796875 L 106.109375 -104.328125 L 48.234375 -104.328125 L 48.234375 -84.25 L 93.515625 -84.25 L 93.515625 -50.796875 L 48.234375 -50.796875 L 48.234375 0 Z M 11.8125 0 "/></g></g></g><g fill="#5170ff" fill-opacity="1"><g transform="translate(402.683767, 200.272328)"><g><path d="M 10.828125 0 L 10.828125 -98.421875 L 46.265625 -98.421875 L 46.265625 0 Z M 28.546875 -107.875 C 23.296875 -107.875 18.703125 -109.84375 14.765625 -113.78125 C 10.828125 -117.71875 8.859375 -122.3125 8.859375 -127.5625 C 8.859375 -132.945312 10.828125 -137.570312 14.765625 -141.4375 C 18.703125 -145.3125 23.296875 -147.25 28.546875 -147.25 C 33.921875 -147.25 38.546875 -145.3125 42.421875 -141.4375 C 46.296875 -137.570312 48.234375 -132.945312 48.234375 -127.5625 C 48.234375 -122.3125 46.296875 -117.71875 42.421875 -113.78125 C 38.546875 -109.84375 33.921875 -107.875 28.546875 -107.875 Z M 28.546875 -107.875 "/></g></g></g><g fill="#5170ff" fill-opacity="1"><g transform="translate(459.770886, 200.272328)"><g><path d="M 1.96875 0 L 42.515625 -55.90625 L 70.46875 -98.421875 L 112.203125 -98.421875 L 71.453125 -41.9375 L 44.09375 0 Z M 72.640625 0 L 45.671875 -41.9375 L 4.53125 -98.421875 L 46.265625 -98.421875 L 74.21875 -55.90625 L 114.578125 0 Z M 72.640625 0 "/></g></g></g><g fill="#737373" fill-opacity="1"><g transform="translate(233.1626, 238.283109)"><g><path d="M 20.390625 0 L 26.8125 -22.40625 L 31.265625 -22.40625 L 24.578125 0 Z M 6.875 0 L 0.25 -22.40625 L 4.703125 -22.40625 L 11.078125 0 Z M 7.453125 0 L 13.5625 -22.40625 L 17.53125 -22.40625 L 11.453125 0 Z M 19.96875 0 L 13.953125 -22.40625 L 17.921875 -22.40625 L 24.15625 0 Z M 19.96875 0 "/></g></g></g><g fill="#737373" fill-opacity="1"><g transform="translate(265.794842, 238.283109)"><g><path d="M 2.4375 0 L 2.4375 -22.40625 L 16.609375 -22.40625 L 16.609375 -18.40625 L 6.8125 -18.40625 L 6.8125 -13.3125 L 15.265625 -13.3125 L 15.265625 -9.40625 L 6.8125 -9.40625 L 6.8125 -4 L 16.734375 -4 L 16.734375 0 Z M 2.4375 0 "/></g></g></g><g fill="#737373" fill-opacity="1"><g transform="translate(285.7582, 238.283109)"><g/></g></g><g fill="#737373" fill-opacity="1"><g transform="translate(294.492318, 238.283109)"><g><path d="M 2.4375 0 L 2.4375 -22.40625 L 16.796875 -22.40625 L 16.796875 -18.40625 L 6.8125 -18.40625 L 6.8125 -13.03125 L 15.140625 -13.03125 L 15.140625 -9.03125 L 6.8125 -9.03125 L 6.8125 0 Z M 2.4375 0 "/></g></g></g><g fill="#737373" fill-opacity="1"><g transform="translate(313.335952, 238.283109)"><g><path d="M 2.4375 0 L 2.4375 -22.40625 L 6.8125 -22.40625 L 6.8125 0 Z M 2.4375 0 "/></g></g></g><g fill="#737373" fill-opacity="1"><g transform="translate(323.701666, 238.283109)"><g><path d="M 0.3125 0 L 8.984375 -12.25 L 16.03125 -22.40625 L 21.25 -22.40625 L 12.765625 -10.75 L 5.59375 0 Z M 16.125 0 L 8.953125 -10.75 L 0.484375 -22.40625 L 5.703125 -22.40625 L 12.734375 -12.28125 L 21.40625 0 Z M 16.125 0 "/></g></g></g><g fill="#737373" fill-opacity="1"><g transform="translate(346.544312, 238.283109)"><g/></g></g><g fill="#737373" fill-opacity="1"><g transform="translate(355.27843, 238.283109)"><g><path d="M 12.671875 0.390625 C 10.410156 0.390625 8.410156 -0.101562 6.671875 -1.09375 C 4.929688 -2.09375 3.570312 -3.460938 2.59375 -5.203125 C 1.613281 -6.941406 1.125 -8.929688 1.125 -11.171875 C 1.125 -13.453125 1.613281 -15.460938 2.59375 -17.203125 C 3.570312 -18.941406 4.921875 -20.300781 6.640625 -21.28125 C 8.359375 -22.257812 10.335938 -22.75 12.578125 -22.75 C 14.835938 -22.75 16.828125 -22.253906 18.546875 -21.265625 C 20.265625 -20.273438 21.613281 -18.910156 22.59375 -17.171875 C 23.570312 -15.429688 24.0625 -13.429688 24.0625 -11.171875 C 24.0625 -8.929688 23.578125 -6.941406 22.609375 -5.203125 C 21.640625 -3.460938 20.296875 -2.09375 18.578125 -1.09375 C 16.859375 -0.101562 14.890625 0.390625 12.671875 0.390625 Z M 12.671875 -3.609375 C 14.035156 -3.609375 15.234375 -3.929688 16.265625 -4.578125 C 17.304688 -5.234375 18.117188 -6.125 18.703125 -7.25 C 19.285156 -8.382812 19.578125 -9.691406 19.578125 -11.171875 C 19.578125 -12.660156 19.28125 -13.96875 18.6875 -15.09375 C 18.09375 -16.226562 17.269531 -17.117188 16.21875 -17.765625 C 15.175781 -18.421875 13.960938 -18.75 12.578125 -18.75 C 11.234375 -18.75 10.03125 -18.421875 8.96875 -17.765625 C 7.914062 -17.117188 7.085938 -16.226562 6.484375 -15.09375 C 5.890625 -13.96875 5.59375 -12.660156 5.59375 -11.171875 C 5.59375 -9.691406 5.890625 -8.382812 6.484375 -7.25 C 7.085938 -6.125 7.921875 -5.234375 8.984375 -4.578125 C 10.054688 -3.929688 11.285156 -3.609375 12.671875 -3.609375 Z M 12.671875 -3.609375 "/></g></g></g><g fill="#737373" fill-opacity="1"><g transform="translate(381.57623, 238.283109)"><g><path d="M 2.4375 0 L 2.4375 -22.40625 L 10.75 -22.40625 C 12.332031 -22.40625 13.726562 -22.085938 14.9375 -21.453125 C 16.15625 -20.828125 17.101562 -19.953125 17.78125 -18.828125 C 18.46875 -17.710938 18.8125 -16.414062 18.8125 -14.9375 C 18.8125 -13.488281 18.476562 -12.195312 17.8125 -11.0625 C 17.15625 -9.9375 16.25 -9.046875 15.09375 -8.390625 C 13.945312 -7.742188 12.617188 -7.421875 11.109375 -7.421875 L 6.8125 -7.421875 L 6.8125 0 Z M 6.8125 -11.453125 L 11.015625 -11.453125 C 11.992188 -11.453125 12.796875 -11.773438 13.421875 -12.421875 C 14.054688 -13.078125 14.375 -13.914062 14.375 -14.9375 C 14.375 -15.96875 14.023438 -16.800781 13.328125 -17.4375 C 12.628906 -18.082031 11.738281 -18.40625 10.65625 -18.40625 L 6.8125 -18.40625 Z M 6.8125 -11.453125 "/></g></g></g><g fill="#737373" fill-opacity="1"><g transform="translate(401.987476, 238.283109)"><g><path d="M 2.4375 0 L 2.4375 -22.40625 L 16.609375 -22.40625 L 16.609375 -18.40625 L 6.8125 -18.40625 L 6.8125 -13.3125 L 15.265625 -13.3125 L 15.265625 -9.40625 L 6.8125 -9.40625 L 6.8125 -4 L 16.734375 -4 L 16.734375 0 Z M 2.4375 0 "/></g></g></g><g fill="#737373" fill-opacity="1"><g transform="translate(421.950834, 238.283109)"><g><path d="M 2.4375 0 L 2.4375 -22.40625 L 10.75 -22.40625 C 12.332031 -22.40625 13.726562 -22.09375 14.9375 -21.46875 C 16.15625 -20.851562 17.101562 -20.003906 17.78125 -18.921875 C 18.46875 -17.847656 18.8125 -16.597656 18.8125 -15.171875 C 18.8125 -13.765625 18.453125 -12.507812 17.734375 -11.40625 C 17.023438 -10.3125 16.050781 -9.457031 14.8125 -8.84375 C 13.570312 -8.238281 12.164062 -7.9375 10.59375 -7.9375 L 6.8125 -7.9375 L 6.8125 0 Z M 14.75 0 L 9.5625 -8.984375 L 12.921875 -11.390625 L 19.71875 0 Z M 6.8125 -11.9375 L 10.78125 -11.9375 C 11.445312 -11.9375 12.039062 -12.070312 12.5625 -12.34375 C 13.082031 -12.625 13.492188 -13.007812 13.796875 -13.5 C 14.109375 -13.988281 14.265625 -14.546875 14.265625 -15.171875 C 14.265625 -16.128906 13.914062 -16.90625 13.21875 -17.5 C 12.53125 -18.101562 11.644531 -18.40625 10.5625 -18.40625 L 6.8125 -18.40625 Z M 6.8125 -11.9375 "/></g></g></g><g fill="#737373" fill-opacity="1"><g transform="translate(443.897727, 238.283109)"><g><path d="M 17.953125 0 L 9.375 -22.40625 L 13.765625 -22.40625 L 22.59375 0 Z M 0.25 0 L 9.09375 -22.40625 L 13.46875 -22.40625 L 4.890625 0 Z M 4.421875 -4.921875 L 4.421875 -8.796875 L 18.46875 -8.796875 L 18.46875 -4.921875 Z M 4.421875 -4.921875 "/></g></g></g><g fill="#737373" fill-opacity="1"><g transform="translate(466.324323, 238.283109)"><g><path d="M 7.171875 0 L 7.171875 -18.40625 L 0.453125 -18.40625 L 0.453125 -22.40625 L 18.234375 -22.40625 L 18.234375 -18.40625 L 11.546875 -18.40625 L 11.546875 0 Z M 7.171875 0 "/></g></g></g><g fill="#737373" fill-opacity="1"><g transform="translate(486.127727, 238.283109)"><g><path d="M 2.4375 0 L 2.4375 -22.40625 L 6.8125 -22.40625 L 6.8125 0 Z M 2.4375 0 "/></g></g></g><g fill="#737373" fill-opacity="1"><g transform="translate(496.493441, 238.283109)"><g><path d="M 12.671875 0.390625 C 10.410156 0.390625 8.410156 -0.101562 6.671875 -1.09375 C 4.929688 -2.09375 3.570312 -3.460938 2.59375 -5.203125 C 1.613281 -6.941406 1.125 -8.929688 1.125 -11.171875 C 1.125 -13.453125 1.613281 -15.460938 2.59375 -17.203125 C 3.570312 -18.941406 4.921875 -20.300781 6.640625 -21.28125 C 8.359375 -22.257812 10.335938 -22.75 12.578125 -22.75 C 14.835938 -22.75 16.828125 -22.253906 18.546875 -21.265625 C 20.265625 -20.273438 21.613281 -18.910156 22.59375 -17.171875 C 23.570312 -15.429688 24.0625 -13.429688 24.0625 -11.171875 C 24.0625 -8.929688 23.578125 -6.941406 22.609375 -5.203125 C 21.640625 -3.460938 20.296875 -2.09375 18.578125 -1.09375 C 16.859375 -0.101562 14.890625 0.390625 12.671875 0.390625 Z M 12.671875 -3.609375 C 14.035156 -3.609375 15.234375 -3.929688 16.265625 -4.578125 C 17.304688 -5.234375 18.117188 -6.125 18.703125 -7.25 C 19.285156 -8.382812 19.578125 -9.691406 19.578125 -11.171875 C 19.578125 -12.660156 19.28125 -13.96875 18.6875 -15.09375 C 18.09375 -16.226562 17.269531 -17.117188 16.21875 -17.765625 C 15.175781 -18.421875 13.960938 -18.75 12.578125 -18.75 C 11.234375 -18.75 10.03125 -18.421875 8.96875 -17.765625 C 7.914062 -17.117188 7.085938 -16.226562 6.484375 -15.09375 C 5.890625 -13.96875 5.59375 -12.660156 5.59375 -11.171875 C 5.59375 -9.691406 5.890625 -8.382812 6.484375 -7.25 C 7.085938 -6.125 7.921875 -5.234375 8.984375 -4.578125 C 10.054688 -3.929688 11.285156 -3.609375 12.671875 -3.609375 Z M 12.671875 -3.609375 "/></g></g></g><g fill="#737373" fill-opacity="1"><g transform="translate(522.791252, 238.283109)"><g><path d="M 2.4375 0 L 2.4375 -22.40625 L 7.015625 -22.40625 L 17.953125 -7.359375 L 17.953125 -22.40625 L 22.296875 -22.40625 L 22.296875 0 L 17.953125 0 L 6.8125 -15.328125 L 6.8125 0 Z M 2.4375 0 "/></g></g></g><g fill="#737373" fill-opacity="1"><g transform="translate(548.641165, 238.283109)"><g><path d="M 9.953125 0.390625 C 8.816406 0.390625 7.757812 0.25 6.78125 -0.03125 C 5.800781 -0.3125 4.925781 -0.703125 4.15625 -1.203125 C 3.394531 -1.703125 2.757812 -2.257812 2.25 -2.875 C 1.75 -3.5 1.425781 -4.148438 1.28125 -4.828125 L 5.5625 -6.109375 C 5.84375 -5.390625 6.332031 -4.765625 7.03125 -4.234375 C 7.738281 -3.710938 8.628906 -3.441406 9.703125 -3.421875 C 10.828125 -3.398438 11.742188 -3.644531 12.453125 -4.15625 C 13.171875 -4.664062 13.53125 -5.328125 13.53125 -6.140625 C 13.53125 -6.847656 13.25 -7.441406 12.6875 -7.921875 C 12.125 -8.398438 11.351562 -8.769531 10.375 -9.03125 L 7.453125 -9.796875 C 6.367188 -10.066406 5.410156 -10.484375 4.578125 -11.046875 C 3.742188 -11.617188 3.09375 -12.320312 2.625 -13.15625 C 2.15625 -13.988281 1.921875 -14.957031 1.921875 -16.0625 C 1.921875 -18.175781 2.617188 -19.820312 4.015625 -21 C 5.410156 -22.1875 7.390625 -22.78125 9.953125 -22.78125 C 11.378906 -22.78125 12.628906 -22.570312 13.703125 -22.15625 C 14.785156 -21.738281 15.6875 -21.144531 16.40625 -20.375 C 17.132812 -19.613281 17.691406 -18.707031 18.078125 -17.65625 L 13.828125 -16.359375 C 13.566406 -17.078125 13.09375 -17.691406 12.40625 -18.203125 C 11.726562 -18.710938 10.867188 -18.96875 9.828125 -18.96875 C 8.753906 -18.96875 7.914062 -18.722656 7.3125 -18.234375 C 6.707031 -17.742188 6.40625 -17.050781 6.40625 -16.15625 C 6.40625 -15.457031 6.644531 -14.90625 7.125 -14.5 C 7.601562 -14.09375 8.257812 -13.78125 9.09375 -13.5625 L 12.03125 -12.828125 C 13.945312 -12.359375 15.4375 -11.515625 16.5 -10.296875 C 17.570312 -9.085938 18.109375 -7.734375 18.109375 -6.234375 C 18.109375 -4.910156 17.785156 -3.753906 17.140625 -2.765625 C 16.503906 -1.773438 15.578125 -1 14.359375 -0.4375 C 13.148438 0.113281 11.679688 0.390625 9.953125 0.390625 Z M 9.953125 0.390625 "/></g></g></g></svg>